#!OML:ASF H:\Terrain\Walking\May29\JustinRory\Justin.ASF
:FULLY-SPECIFIED
:DEGREES
174
root 12.1159 10.0217 8.13676 -30.7033 -59.4133 1.87641
lowerback 31.5661 2.66969 -3.13822
upperback 13.4984 1.5778 0.897325
thorax -2.03454 0.193171 2.31011
lowerneck 6.09472 -15.571 -18.774
upperneck 17.4385 -25.7748 19.5349
head 9.59163 -12.8594 7.05678
rclavicle -5.31128e-015 -6.41081e-015
rhumerus -9.96033 -6.43711 -97.2371
rradius 61.0916
rwrist 13.169
rhand -18.1391 24.189
rfingers 7.12502
rthumb 8.13605 -5.63438
lclavicle -5.31128e-015 -6.41081e-015
lhumerus -45.9146 -12.4987 100.706
lradius 61.8015
lwrist 30.7871
lhand -18.9999 58.2005
lfingers 7.12502
lthumb 7.30524 88.0544
rfemur -60.3368 -10.7972 7.02403
rtibia 98.0001
rfoot -3.83956 13.2471
rtoes -1.37223
lfemur -59.5832 12.2532 -3.19562
ltibia 96.2334
lfoot -5.09962 -16.7691
ltoes -8.92762
175
root 12.1015 10.0027 8.15212 -30.9611 -59.3311 1.90582
lowerback 31.6762 2.67481 -2.80015
upperback 13.6501 1.65481 0.747674
thorax -1.90201 0.241998 1.92437
lowerneck 5.75753 -15.7605 -18.6151
upperneck 17.0274 -26.0158 20.004
head 9.61304 -12.9276 7.11233
rclavicle 6.79393e-014 -1.58469e-014
rhumerus -10.7717 -7.23265 -97.9182
rradius 62.4776
rwrist 14.4652
rhand -17.1224 23.6823
rfingers 7.12502
rthumb 9.11728 -6.10065
lclavicle 6.79393e-014 -1.58469e-014
lhumerus -45.9531 -13.8555 101.025
lradius 61.5455
lwrist 32.1704
lhand -19.9722 58.4463
lfingers 7.12502
lthumb 6.36664 88.3306
rfemur -59.7838 -10.9961 6.99198
rtibia 97.8983
rfoot -4.89511 12.7859
rtoes -4.98
lfemur -59.3851 11.872 -3.33381
ltibia 95.9388
lfoot -3.35273 -19.9857
ltoes 2.59924
176
root 12.0812 9.97222 8.16843 -31.3383 -59.4035 2.1386
lowerback 31.8063 2.7976 -3.17826
upperback 13.7466 1.6899 0.854972
thorax -1.8592 0.229852 2.24877
lowerneck 5.41587 -15.8337 -18.3362
upperneck 16.4916 -25.8947 19.8766
head 9.39643 -12.8424 7.01692
rclavicle 1.59587e-014 -3.04265e-014
rhumerus -10.3513 -6.79368 -98.0587
rradius 61.9695
rwrist 14.864
rhand -16.6734 23.6693
rfingers 7.12502
rthumb 9.55049 -6.09425
lclavicle 1.59587e-014 -3.04265e-014
lhumerus -46.1277 -14.0342 101.392
lradius 61.7015
lwrist 33.1368
lhand -20.5863 58.6707
lfingers 7.12502
lthumb 5.77382 88.572
rfemur -59.7108 -11.203 6.88816
rtibia 98.2594
rfoot -5.01588 12.9112
rtoes -3.96124
lfemur -59.3459 11.7257 -3.34924
ltibia 95.9751
lfoot -3.00371 -20.505
ltoes 3.68203
177
root 12.0671 9.96199 8.18633 -31.5927 -59.4299 2.30518
lowerback 31.9325 2.83994 -3.33668
upperback 13.796 1.68654 0.894193
thorax -1.86039 0.214584 2.3836
lowerneck 5.11731 -15.9649 -18.0824
upperneck 16.006 -25.8558 19.6555
head 9.19963 -12.8034 6.88206
rclavicle -4.1546e-014 4.15211e-014
rhumerus -9.87722 -6.22095 -98.1336
rradius 61.4108
rwrist 15.0456
rhand -16.6027 23.1195
rfingers 7.12502
rthumb 9.61871 -6.64094
lclavicle -4.1546e-014 4.15211e-014
lhumerus -46.3717 -14.0065 101.577
lradius 61.8711
lwrist 33.5211
lhand -20.8579 58.7713
lfingers 7.12502
lthumb 5.51158 88.6797
rfemur -59.8819 -11.6306 6.81157
rtibia 98.6926
rfoot -4.56195 13.4361
rtoes 0.172794
lfemur -59.1521 11.2101 -2.97065
ltibia 96.2243
lfoot -3.96996 -19.0671
ltoes -2.63164
178
root 12.0649 9.97572 8.2 -31.7794 -59.4088 2.40569
lowerback 32.1472 2.82504 -3.25905
upperback 13.7692 1.678 0.888307
thorax -1.98144 0.214977 2.33306
lowerneck 5.02145 -16.0331 -18.0834
upperneck 15.5524 -25.8292 19.6617
head 9.05505 -12.7907 6.87624
rclavicle -1.19768e-014 -4.50247e-014
rhumerus -9.60307 -6.14899 -98.2419
rradius 60.774
rwrist 16.8177
rhand -16.3489 22.6114
rfingers 7.12502
rthumb 9.86351 -7.1376
lclavicle -1.19768e-014 -4.50247e-014
lhumerus -46.6515 -14.0642 101.702
lradius 61.8079
lwrist 33.3253
lhand -20.3822 58.6058
lfingers 7.12502
lthumb 5.97079 88.5017
rfemur -59.9499 -11.6279 6.78297
rtibia 98.9539
rfoot -4.51304 13.3251
rtoes 0.725545
lfemur -58.9453 10.6474 -2.78854
ltibia 96.3496
lfoot -4.50845 -17.9002
ltoes -9.72023
179
root 12.0618 9.98062 8.21133 -32.2971 -59.5941 2.79356
lowerback 32.5865 2.95581 -3.20709
upperback 13.6946 1.83022 0.826012
thorax -2.26228 0.2976 2.17846
lowerneck 5.23287 -16.0762 -18.1163
upperneck 14.8242 -25.837 20.0167
head 8.83051 -12.8137 7.01591
rclavicle 2.63887e-014 2.0276e-014
rhumerus -9.75457 -6.37553 -98.3078
rradius 60.6027
rwrist 20.0749
rhand -15.7095 21.4672
rfingers 7.12502
rthumb 10.4804 -8.25153
lclavicle 2.63887e-014 2.0276e-014
lhumerus -47.0765 -14.4671 101.93
lradius 61.7961
lwrist 33.0916
lhand -19.7778 58.4333
lfingers 7.12502
lthumb 6.55436 88.3119
rfemur -59.9854 -11.4513 6.82247
rtibia 99.0905
rfoot -4.42771 12.9089
rtoes -1.16491
lfemur -58.4876 10.4539 -2.59656
ltibia 96.363
lfoot -4.47321 -17.396
ltoes -14.7325
180
root 12.0516 9.97387 8.22182 -33.1279 -59.9903 3.49624
lowerback 33.5138 3.30714 -3.44841
upperback 13.3038 2.12934 0.861359
thorax -2.66169 0.43688 2.06521
lowerneck 5.38484 -16.1833 -18.0648
upperneck 14.1567 -25.9391 20.3652
head 8.64696 -12.8733 7.11826
rclavicle -3.44394e-014 -2.07481e-014
rhumerus -9.50177 -6.81346 -98.4051
rradius 59.8112
rwrist 22.4108
rhand -15.2801 21.5631
rfingers 7.12502
rthumb 10.8946 -8.13423
lclavicle -3.44394e-014 -2.07481e-014
lhumerus -47.4757 -15.0454 102.21
lradius 61.8278
lwrist 33.1169
lhand -19.903 58.3625
lfingers 7.12502
lthumb 6.43349 88.2448
rfemur -60.076 -11.0832 6.84516
rtibia 99.2081
rfoot -4.11417 12.5796
rtoes -2.22469
lfemur -57.9134 10.5973 -2.36403
ltibia 96.3244
lfoot -4.05735 -17.6446
ltoes -12.7407
